<?xml version="1.0" encoding="UTF-8"?>
<svg id="Layer_2" xmlns="http://www.w3.org/2000/svg" version="1.1" viewBox="0 0 184.3 73">
  <!-- Generator: Adobe Illustrator 30.0.0, SVG Export Plug-In . SVG Version: 2.1.1 Build 123)  -->
  <defs>
    <style>
      .st0 {
        fill: #fff;
      }
    </style>
  </defs>
  <g>
    <g>
      <path class="st0" d="M90.1,11.6h5v26.1h-5.5v-15.3c-2.9,3.9-4.9,8.4-7.7,12.3-.8.1-2.4.3-3-.1l-7.3-11.7v14.5s-.3.4-.4.4h-5.4V11.6h4.9l9.8,16,9.5-16Z"/>
      <g>
        <path class="st0" d="M103.9,17.6l5.8,13.4,5.8-13.4h5.4l-9.9,23.3c-1.9,3.4-4.8,4.6-8.7,4.2-.8,0-4-1-4.2-1.8,0-.2,1.7-3.7,1.9-3.8.4-.3,1.6.7,2.3.8,2.4.4,3.5-.3,4.4-2.5l-8.6-20.2h5.9Z"/>
        <path class="st0" d="M126.3,10.6v10.3c9-7.9,18.3,2.1,14.1,12-2.4,5.8-9.7,7-14,2.5-.3.5.2,1.7-.3,2-.4.2-2.7.2-2.7-.2V10.6h2.9,0ZM131.3,20.8c-7.6,1.1-7.2,16.1,2.3,14.8,7.3-1,6.8-16.1-2.3-14.8Z"/>
      </g>
    </g>
    <g>
      <path class="st0" d="M24,21.9c.7.6-3,2.9-3.7,2.9-1.9.1-3-1.7-4.7-2.3-.1-1.8,1.3-.5,2.5-.3,2,.2,3.9-.1,5.9-.2h0Z"/>
      <path class="st0" d="M46.5,20.7c.7.8-2,3-2.8,3.1-1.4.3-3.7-.6-4.9-1.3-2.6-1.6,1.7-.8,2.2-.8,1.9,0,3.7-.4,5.4-1Z"/>
      <path class="st0" d="M37.1,30c.7,4-3.1,4.9-6.4,4.5-1.2-.1-2.4-.9-3.7-.7v-.7c2.3-.2,6.6,1.1,8.3-1,.8-.9.5-2.5,1.8-2.1h0Z"/>
      <path class="st0" d="M21.8,18.6c.7.8-1.4,2.5-2.3,2.6-1.2.1-2.3-1.5-3-2.3-.3-1.9,4.9-.7,5.2-.3h0Z"/>
      <path class="st0" d="M44.5,19.9c-1.1,1.5-5,.7-4.5-1.2.2-.8,3.7-1.3,4.4-1.1s.4,1.9,0,2.3Z"/>
      <path class="st0" d="M21.3,9.2s-.7.2-.9.4c-1.5,1.1-2.8,2.2-3.1,4.2,1.6-.6,2.9-1.7,4.4-2.4,5.3-2.6,10.4-3.5,15.8-.6.8.4,5.3,4.1,5.7,3.8-.4-1.1-.9-2.1-1.7-3-.7-.7-4-2.6-4.1-2.9,0-.1,0-.6.1-.6,1.1-.2,4,1.3,5,1.9,2.9,1.7,5,3.9,5.2,7.4-4.2-1-8.2.7-12.2,1.4,0-2.5,5.5-3.6,1.7-5.9-3-1.8-7.9-2.3-11.3-1.5-.9.2-3.2,1.6-3.1,2.6.2,1.1,3.8,2.8,3.1,4.7h-1.3c-3.5-1.5-7.3-1.4-11-2-.7-.3-.4-1.2-.2-1.8.7-2.1,2.4-4.1,4.3-5.3.5-.3,3-1.7,3.3-1.7.3,0,.5.9.3,1.2h0Z"/>
      <path class="st0" d="M18,43.9c-.2-.5.5-1,.5-1.3-.1-.8-3.5-.3-1.4-2.5-.6-.1-2.1-.9-1.9-1.6.6-.5,1.9-.4,1.3-1.3-.1-.2-1-.4-.7-.7.5-.7,3.5-.7,3.7-1,.1-.2-.9-1.4.5-2,2.1-.9,6.3,1.3,8,2.7,2.3,1.9,2.6,3.6.1,5.6-2.6,2.1-6.8,2.4-10,2.1Z"/>
      <path class="st0" d="M41.2,33.6c.2.2-.4,1.5-.2,1.9.6-.2,1.1.4,1.6.5.6.1,2.6-.3,1.9,1-.4.8-1.9.2.8,1.5.1.8-1.2,1.5-1.9,1.5.2.6.8,1,.7,1.7-.6,0-1.5.2-1.9.6-.3.3.2.9-.2,1.2-.4.2-.9,0-1.3.1-1.6.4-2.8.3-4.5,0-1.5-.3-3.1-1.6-4.4-2.4,0-.6-1.1-2-1-2.4.1-.9,1.7-2.5,2.5-3,1.5-1.1,4.4-2.4,6.2-2.4.3,0,1.7.2,1.8.3Z"/>
      <path class="st0" d="M37.6,51.5c-1.1.6-1.8-.7-2.5-1.1-3.4-2-6.6-1-9.7.7-.2.1-.2.8-1.2.4-.3-.1-1.7-2.2-1.8-2.5-.7-2.6,2.5-4.5,4.6-5.1,3.2-.9,9.2-1,11.1,2.2.6,1,.9,2.1.7,3.3,0,.3-1,2-1.2,2h0Z"/>
      <g>
        <path class="st0" d="M14.9,29.9c.2-.1,1.1-.4,1.1-.3-.1,1.5-1.3,2.5-1.9,4-.3.8-.7,2.2-.8,3.1,0,.8.2,3.2-.4,3.4s-7.9-3.5-8.6-4.3c-.5-.5-1.1-1.6-.7-2.4l6.9-12.8c.2,0,.4-.2.7,0,.8.6-1,4.6-1.2,5.5-.1.8-.3,2.8-.3,3.6.1,3.5,2.3,2.9,4.3,1.2.4-.3.6-.9.8-1Z"/>
        <path class="st0" d="M12.4,6.6c.6,1-.8.6-1.3.7l-2.3.7c.6.1,2.2-.2,2.5.2.7,1-.8.6-1.1,1.2.6-.2,3.2-.8,3.6-.5.4.4-.4.7-.5.9,5-1.6-.2,2-1.3,3.3-.4.5-1.5,1.8-1.8,2.3-.4.7,0,1.6-1.1,1.5-.3,0-2.1-1.5-2.3-1.8-3.6-3.8-2.5-8.6.9-12.1.7.7,1.5,1.4,2.3,2,.5.3,2.3,1.2,2.3,1.4Z"/>
      </g>
      <g>
        <path class="st0" d="M50.3,20.5l5.7,10.3c.6,1.8,2,3.4.4,5.1-1,1-6.8,3.9-8.3,4.4-.3,0-.7,0-1,0,0-.8.7-1.1.7-2,0-.9-.5-4-.9-4.9-.5-1.2-1.9-2.5-1.8-3.8.7-.7,3.7,4.7,5.7,2,.7-1,.2-1.4.3-2.4,0-3.2-1.2-5.2-1.4-7.9,0-.7-.1-1,.7-.8Z"/>
        <path class="st0" d="M48.7,8.2c0-.9,1.1-1,1.7-1.6s2-2.8,2.8-2.8,3.3,3.8,3.6,4.5c1.1,3.2-.2,6.9-3,8.7-.4.2-.9,0-1,.6.2-1.4-1.3-2.6-2.3-3.5-1.2-1-2.5-2-4.1-2.4v-1.1s2.4.5,2.4.5c-2.5-2.2.8-1.1,1-1.2,0,0,0-1,.3-1.2.2-.1.7,0,1-.1.3-.1,1.2-.3,1.4-.7h-3.6Z"/>
      </g>
    </g>
    <g>
      <path class="st0" d="M149.3,35.3v10h-2.6v-26.5c.4,0,2.5-.1,2.6,0,.2.2-.4,2.2.4,1.9,5.4-5.1,13.3-2.3,14.7,5,1.9,9.8-7.1,16.8-15,9.6h0ZM154.5,20.8c-7,1-6.9,13.6-.5,14.7,10.4,1.8,10.2-16.1.5-14.7Z"/>
      <path class="st0" d="M169.7,18.8h2.9v2.9c1.2-1.6,2.2-3.1,4.4-3.4.5,0,3,0,3.2.1.4.3.1,1.9.2,2.5-3.4-.6-5.9.4-7.1,3.8-.2.6-.8,2.6-.8,3.1v9.9c-.5,0-2.9.2-2.9-.4v-18.5h0Z"/>
    </g>
  </g>
  <g>
    <path class="st0" d="M28.5,58.7c0,0,1.2-.6,1.2.4,0,.6-1.7,2-1.4,3,2.4,0,2.7-2.9,4.6-3.6,3-1.2,1.5,2.1.9,1.5,0-.3.6-1.3-.1-1.2-2,.4-3.8,4.7.1,3,1.8-.8,2.6-3.2,4.4-3.3.8,0,1.2.6,2,.5.2.2-2.6,3-.8,3.1,2,.2,3.2-3,4.1-3.3,1.4-.6-.6,1.6-.7,1.9-.9,2,.4,1.5,1.4.5.2-.2,2.7-3.7,2.2-1.8-.2.8-1.2,1.5-1,2.3,1.5-.8,2.2-3.1,4.1-3.1.8,0,1.2.6,2,.5-.4,1.1-1.7,1.7-1.4,3.1,2.7.5,3.8-3.5,6.1-3.6.8,0,1.2.6,2,.5-.4,1.2-1.8,1.6-1.4,3.1.4.4,2.7-.9,3-1.3.3-.4,1.2-2.5,1.4-2.6.8-.2.6.2.4.7.2.2,1.8-1.3,2.1-.3.3,1-.9,1.9-1.2,2.8,0,.3-.2.5.2.6.7.1,1.9-1,2.4-1.4.5,1-2.3,2.6-3,1.8-.9-1,.6-2.1.9-2.9.6-1.6-2,.9-2.2,1.1-.3.4-.8,1.4-1.1,1.6-.3.2-.6-.1-.8,0-1.1.4-2.5,1.6-2.8-.6-1,1-2.9,2.2-3.1,0-.7.6-2.2,1.7-3.1,1.1-.2-.2-.4-.8-.6-.8-.3,0-2.3,2.5-3.1-.2-2.3,1.3-2.5,3.9-4.1,5.7-2.3,2.7-4.2,1.3-2-1.3,1-1.1,2.8-2.2,3.7-3.2.2-.2.6-.4.3-.8,0,0-1,1-1.8.7-.7-.2-.1-1.5-.8-1.2-.3.1-.7.7-1.2.9-2.2.9-2-.8-2.6-.7-.4,0-.5,1-1.7,1s-.7-.9-.8-1c-.3-.3-1.2.5-1.6.7-2.3.9-2.6-.9-3.1-.9-.2,0-2,1.9-2.8.8-.8-1.3,1.4-3.1,1.2-3.2l-1.7.5c-.2-1-.2-2.1,1.1-2.2.6.3,0,1.1.1,1.2h0ZM38.3,59c-.8,0-2.5,1.7-2.5,2.5-.2,2.3,4.9-2.7,2.5-2.5ZM47,62.1c.6.6,3.7-1.8,3-2.9-.3-.4-.5-.2-.8,0-1.1.4-2.2,1.7-2.2,2.9h0ZM53.7,62.1c1,.4,3.9-2.3,2.9-3-.8-.5-3.3,1.9-2.9,3ZM43.1,64.2c-.5,0-.6.2-.8.5-.5.4-3,3.1-2.5,3.6,1.1.3,3.6-3.8,3.3-4.1h0Z"/>
    <path class="st0" d="M140.4,54.4l-.7,1.9c.7,0,1.6,0,2.3,0,.4,0,.7.2.4.5-1,.1-2.6-.3-3.4.3-.3.2-1.7,1.9-2.2,2.4-.5.5-2.2,1.4-1.5,2.4.9,1.3,3.5-2.3,4.2-2.8,1.4-.9,1.9-.6,3.3-.1-.3,1.1-1.5,1.8-1.2,3.1.3,0,.6,0,1-.1.6-.2,3.4-2.3,3.5-2.7.1-.4,0-.8.2-1.3.3-.6,1.7-1.5,1.6-.1,0,.5-.7.9-.7,1.5,0,.5.9,1.6.5,2.5,2-1.9,2.5-.9.3.4-1.5.9-3,1.4-3.6-.7-1.1.9-3.1,2.1-3.6,0-.9,1.2-2.9,2.1-3.1,0-.9,1-2.7,1.9-3.1,0-.5,0-1.6,1.4-2.9.9-.4-.1-.3-.7-.5-.7-.6,0-1.9,1.6-2.7.7-.7-.8.5-2.7,1.1-3.3l-1.7.5c0-.6-.2-1.7.5-2,1.3-.7.7,1,.7,1.1,0,0,1-.5,1.2.1.2.7-1.7,2.3-1.4,3.2.9.4,1.8-1,2.3-1.1.2,0,.5.2.6.2,0,0-.2-.5,0-.8.1-.2,1.4-2.1,1.7-1.8.4.5-2,2.7-1.4,3.6.3.3,2.4-1,2.6-1.3.5-.7.6-2.9,1.7-3.6-1.3-.5-1.7.5-2.5,1.1-1.3-1.6,2.1-1.5,2.8-1.7s2.2-2.7,3.8-2.1h0ZM139.7,55.1c-.5-.2-2,1.1-1.7,1.4l.9-.4.7-1.1h0ZM138.1,57c-.9-.6-2.1,1.7-2.2,2.4l1.2-1.1s.9-1.3.9-1.3ZM138.5,62.1c.6.6,3.9-2.3,2.9-3s-3.5,2.3-2.9,3ZM146.9,62.1c.3-.8.3-1.7-.4-2.4-1.4,1-1.2,1.8.4,2.4Z"/>
    <path class="st0" d="M91.6,62c1.2.8,3.7-3.7,5.8-3.6,0,0,1.3.3,1.3.4.8.6-1.7,2.2-1,3.1,1,.6,2.4-1,3-1.3.3-.1.5,0,.3.3-.4,1-4.1,3.1-4.1.6-1,1-2.7,2.2-3.2.2-.6,0-1.5,1-2.1.9-.6-.1-.8-1.2-1-1.2-.6,0-1.3,1.3-2.4.9-.3-.1-.3-.6-.4-.7-.6-.4-2.2,1.7-3,.4-.6-1,1.1-2.3,1.1-3.3-.2-.2-1.5.9-1.7,1.1-.3.3-1.8,2.7-2.2,2.3s1.9-3.3,1.9-4c.9-.1.8,0,.4.7.6.1,1.6-1.1,2-.5.8,1.2-1.4,2.4-1.1,3.6,2,.1,2.9-2.7,4.2-3.3.8-.4,1.7-.2,2-.3,0,0,.2-.5.3-.8.7-.9,3.9-4.7,4.9-4.5,1.3.3-1.1,3.1-1.4,3.6-.8.9-3.8,3.4-4.1,4.1-.1.3,0,1,.2,1.2h0ZM96.6,54.2c-.6-.5-4.7,4.2-4.6,5.3l3.7-3.8s.8-1.4.8-1.4ZM90.8,60.8c.3-.5.9-2.1-.2-1.8s-3,3.4-1.3,3c.1,0,1.5-1.1,1.6-1.2ZM94.7,62.1c.6.6,3.9-2.3,2.9-3-1.1-.7-3.5,2.4-2.9,3Z"/>
    <path class="st0" d="M171.4,59c.1,0,1.9-1.8,1.9.2.6-.2,1.7-1.2,2.3-.7,1.3,1-2.1,3.2-.7,3.6s3.3-2.7,4.1-3.6c.5,0,.4.2.3.5-.2.5-2.7,3.3-.8,3,.7-.1,1.5-1.2,2-1.4.3-.1.5,0,.4.3-.4,1-3.6,2.6-3.7.6-.9,1-3.1,1.9-3-.1,0-.9.9-1.3,1.2-2,.5-1.3-1.5,0-1.8.4-.4.4-1.9,2.9-2.5,2.4.4-.9,1.2-1.7,1.6-2.6.1-.3.4-.8-.2-.7l-3,3.2c-1.4-.2-3.5,1.8-3.7-.6-4,3.8-3.8-2-.6-3,1.2-.4,1.5.4,2.6.4.3.2-2.6,3-.8,3.1,1.5.1,3.7-2.5,4.2-3.8l.5.7h0ZM165.5,59c-.2,0-.9.4-1.1.6-.4.3-2,2.3-1.1,2.5,1.2.3,4-3.2,2.2-3.1Z"/>
    <path class="st0" d="M19.4,59l1.9-.2c.9,1.4-.8,4-2.3,4.2-.2,0-.7-.2-.8-.2-.3.2-1.3,5.4-2.6,6.6-.6.6-1.1.4-1.3-.4-.5-1.7,2.5-6.2,2.3-6.5-4,1.4-3.6-3-.6-4.1s0,3.1-1.5,3.2c0,1.8,3.6-.6,3.9-1.2.5-.7.3-2.3,1.2-2.8.6.4,0,1-.1,1.4h0ZM16.5,59c-.5-.4-2.1,1.4-2.2,1.9.3.3,2.2-1.3,2.2-1.9ZM20.8,59.4c-1-.5-3.2,2.5-2,2.9,1,.2,2.5-2.3,2-2.9ZM15.3,69c.2-.2,1.5-3.6,1.7-4.2.2-.7.5-1.3.5-2-.4.1-.6.8-.8,1.2-.6,1.1-1.8,3.4-1.8,4.7,0,.4.2.6.5.4h0Z"/>
    <path class="st0" d="M113.1,52.3c6.8-.9,5.4,4.8.6,6-.7.2-1.5,0-2.1.3s-1.5,2.2-2.1,2.9c-2.2,2.3-5.2,1.3-4.9-2s5.4-6.8,8.6-7.2h0ZM111.9,58c1.9.6,7.2-3.5,4.3-4.9-3.6-1.8-12.7,3.8-10.8,8.2,1.4,3.4,5.7-2.4,5.3-3,0-.2-.9-.1-.7-.7,1.7.8,2.2-1.7,3.1-2.8.2-.2,1.4-1.5,1.6-1.5,1.1-.5-.7,1.5-.8,1.6-.7,1-1.3,2.1-2,3.2h0Z"/>
    <path class="st0" d="M162,62.6c.2.2.2.8-.3.7-2.1-.6-2.4-4.2-3.2-6-.5.5-1.8.5-2.1.8-.4.3-1.8,3.1-2.5,3.9-.4.4-.7,1-1.4.8l3.1-4.7c0-.1-1.5-.1-1.2-1.4.3-1,2.3-.8,3-1.4.5-.4,2-3.4,2.4-3.6.1,0,.8,0,.8.1-.5.7-2.8,3.5-2.6,4.1,0,.2.4.4.6.4.5,0,5.3-3.7,6.5-4.3.5-.2,2-1,1.5,0l-7.6,4.8c1,1.8.8,3.5,2.2,5.2.2.2.7.4.8.5h0ZM156.5,56.3c-.3,0-.6,0-.9.2-1.5.8.8,1.8.9-.2Z"/>
    <path class="st0" d="M18,51.8l-7.9,5.1c.9,1.4.9,4,2,5.1.5.5,1.3.2,1.1,1.2-2.6-.3-2.6-4-3.6-6-.5.5-1.8.5-2.1.8-.5.4-1.9,3.4-2.8,4.2-.2.2-.8.7-1.1.5s3.3-3.9,2.8-4.8c0-.1-.7-.2-.9-.7-.5-1.6,2.2-1.4,3-2,.5-.4,1.8-3.3,2.4-3.6.2-.1.7-.1.6.3-.2.8-2.6,3.1-2.4,3.8,0,.2.4.4.6.4.6,0,5.4-3.8,6.7-4.3.6-.2,1-.4,1.6-.2ZM7.7,56.3c-.3,0-.6,0-.9.2-1.5.8.8,1.8.9-.2Z"/>
    <path class="st0" d="M82,58.2c-1.2-.6-2.8,3.1-2.6,3.7.3,1.2,1.8-.3,2.1-.5.4-.2.6-.1.5.2-.1.3-1.5,1.2-1.8,1.3-2.4.4-.7-3.9.2-4.7-3.2-.6-3.1.7-4.9,2.4-1.5,1.3-3.7,3-5.7,1.7-.3-.2-1.1-1.3-1.1-1.5,0-.2.5-.5.7-.4,0,0,.3.9.6,1.2,2,1.9,5.3-1.6,6.6-3l-1-.6c2.5,0,3.3-2.5,5-4,.6-.5,1.8-1.5,2.5-1.5,3.1-.3-1.2,4.3-1.5,5-.1.3.5.6.4.7h0ZM83.4,53c-.5-.6-5,4.1-5.3,4.8h2.6c.2-1,3.3-4.1,2.7-4.8Z"/>
    <path class="st0" d="M117.2,57.5c-.2,2,.2.9.8,1,1.3.3-1.6,2.7-1.1,3.6,2.2,0,2.9-2.2,4.2-3.6.4-.2.4.3.3.6-.2.5-1,1.1-1.3,1.8-.9,2,1,1,1.9.2,1-.8,2.5-3.8,4.2-2.8,1.8,1.1-3.2,6.9-3.8,3.2-1.1.7-2.8,1.9-3.2,0-3.1,2.7-3.9,0-1.6-2.4l-1.7.5c0-1-.2-2.2,1.2-2.2h0ZM125.3,58.8c-.8.1-2.2,1.9-2.1,2.7.1,2.4,3.5-1.5,2.8-2.5-.2-.3-.4-.2-.7-.2Z"/>
    <path class="st0" d="M22.5,61.6c-.1.2,0,.5.2.6,1.3.8,4-2.3,4.3-2,.4.4-2.6,2.5-3.2,2.6-3.9.6-1.3-5.3,1.5-4.3.5.8-.9,1.9-1.5,2.4-.4.3-1.3.7-1.3.7ZM24.7,59c-.4-.3-2.1,1.3-1.9,1.9.1.2,2.3-1.6,1.9-1.9Z"/>
    <path class="st0" d="M180.2,57c.6.6-.7,1.7-1,.8-.2-.7.7-1.1,1-.8Z"/>
    <path class="st0" d="M122.5,57c.6.6-.7,1.7-1,.8-.2-.7.7-1.1,1-.8Z"/>
    <polygon class="st0" points="127.8 59.7 128.2 60.1 127 61.3 126.6 60.9 127.8 59.7"/>
    <circle class="st0" cx="115.5" cy="60.4" r=".3"/>
    <path class="st0" d="M115,61.1c0,.2-.4-.1-.2-.5,0-.2.4.1.2.5Z"/>
  </g>
</svg>