<?xml version="1.0" encoding="UTF-8"?>
<svg id="Layer_2" xmlns="http://www.w3.org/2000/svg" version="1.1" viewBox="0 0 73 73">
  <!-- Generator: Adobe Illustrator 30.0.0, SVG Export Plug-In . SVG Version: 2.1.1 Build 123)  -->
  <defs>
    <style>
      .st0 {
        fill: #fff;
      }

      .st1 {
        fill: #c7000d;
      }
    </style>
  </defs>
  <rect class="st1" width="73" height="73" rx="21.4" ry="21.4"/>
  <path class="st0" d="M30.1,30.9c.7.6-3,2.9-3.7,2.9-1.9.1-3-1.7-4.7-2.3-.1-1.8,1.3-.5,2.5-.3,2,.2,3.9-.1,5.9-.2h0ZM52.6,29.7c.7.8-2,3-2.8,3.1-1.4.3-3.7-.6-4.9-1.3-2.6-1.6,1.7-.8,2.2-.8,1.9,0,3.7-.4,5.4-1ZM43.3,39.1c.7,4-3.1,4.9-6.4,4.5-1.2-.1-2.4-.9-3.7-.7v-.7c2.3-.2,6.6,1.1,8.3-1,.8-.9.5-2.5,1.8-2.1h0ZM27.9,27.6c.7.8-1.4,2.5-2.3,2.6-1.2.1-2.3-1.5-3-2.3-.3-1.9,4.9-.7,5.2-.3h0ZM50.6,28.9c-1.1,1.5-5,.7-4.5-1.2.2-.8,3.7-1.3,4.4-1.1s.4,1.9,0,2.3ZM27.4,18.2s-.7.2-.9.4c-1.5,1.1-2.8,2.2-3.1,4.2,1.6-.6,2.9-1.7,4.4-2.4,5.3-2.6,10.4-3.5,15.8-.6.8.4,5.3,4.1,5.7,3.8-.4-1.1-.9-2.1-1.7-3-.7-.7-4-2.6-4.1-2.9,0-.1,0-.6.1-.6,1.1-.2,4,1.3,5,1.9,2.9,1.7,5,3.9,5.2,7.4-4.2-1-8.2.7-12.2,1.4,0-2.5,5.5-3.6,1.7-5.9-3-1.8-7.9-2.3-11.3-1.5-.9.2-3.2,1.6-3.1,2.6.2,1.1,3.8,2.8,3.1,4.7h-1.3c-3.5-1.5-7.3-1.4-11-2-.7-.3-.4-1.2-.2-1.8.7-2.1,2.4-4.1,4.3-5.3.5-.3,3-1.7,3.3-1.7.3,0,.5.9.3,1.2h0ZM24.1,52.9c-.2-.5.5-1,.5-1.3-.1-.8-3.5-.3-1.4-2.5-.6-.1-2.1-.9-1.9-1.6.6-.5,1.9-.4,1.3-1.3-.1-.2-1-.4-.7-.7.5-.7,3.5-.7,3.7-1,.1-.2-.9-1.4.5-2,2.1-.9,6.3,1.3,8,2.7,2.3,1.9,2.6,3.6.1,5.6-2.6,2.1-6.8,2.4-10,2.1ZM47.4,42.7c.2.2-.4,1.5-.2,1.9.6-.2,1.1.4,1.6.5.6.1,2.6-.3,1.9,1-.4.8-1.9.2.8,1.5.1.8-1.2,1.5-1.9,1.5.2.6.8,1,.7,1.7-.6,0-1.5.2-1.9.6-.3.3.2.9-.2,1.2-.4.2-.9,0-1.3.1-1.6.4-2.8.3-4.5,0-1.5-.3-3.1-1.6-4.4-2.4,0-.6-1.1-2-1-2.4.1-.9,1.7-2.5,2.5-3,1.5-1.1,4.4-2.4,6.2-2.4.3,0,1.7.2,1.8.3ZM43.7,60.5c-1.1.6-1.8-.7-2.5-1.1-3.4-2-6.6-1-9.7.7-.2.1-.2.8-1.2.4-.3-.1-1.7-2.2-1.8-2.5-.7-2.6,2.5-4.5,4.6-5.1,3.2-.9,9.2-1,11.1,2.2.6,1,.9,2.1.7,3.3,0,.3-1,2-1.2,2h0ZM21.1,38.9c.2-.1,1.1-.4,1.1-.3-.1,1.5-1.3,2.5-1.9,4-.3.8-.7,2.2-.8,3.1,0,.8.2,3.2-.4,3.4s-7.9-3.5-8.6-4.3c-.5-.5-1.1-1.6-.7-2.4l6.9-12.8c.2,0,.4-.2.7,0,.8.6-1,4.6-1.2,5.5-.1.8-.3,2.8-.3,3.6.1,3.5,2.3,2.9,4.3,1.2.4-.3.6-.9.8-1ZM18.6,15.6c.6,1-.8.6-1.3.7l-2.3.7c.6.1,2.2-.2,2.5.2.7,1-.8.6-1.1,1.2.6-.2,3.2-.8,3.6-.5.4.4-.4.7-.5.9,5-1.6-.2,2-1.3,3.3-.4.5-1.5,1.8-1.8,2.3-.4.7,0,1.6-1.1,1.5-.3,0-2.1-1.5-2.3-1.8-3.6-3.8-2.5-8.6.9-12.1.7.7,1.5,1.4,2.3,2,.5.3,2.3,1.2,2.3,1.4ZM56.4,29.5l5.7,10.3c.6,1.8,2,3.4.4,5.1-1,1-6.8,3.9-8.3,4.4-.3,0-.7,0-1,0,0-.8.7-1.1.7-2,0-.9-.5-4-.9-4.9-.5-1.2-1.9-2.5-1.8-3.8.7-.7,3.7,4.7,5.7,2,.7-1,.2-1.4.3-2.4,0-3.2-1.2-5.2-1.4-7.9,0-.7-.1-1,.7-.8ZM54.8,17.3c0-.9,1.1-1,1.7-1.6s2-2.8,2.8-2.8,3.3,3.8,3.6,4.5c1.1,3.2-.2,6.9-3,8.7-.4.2-.9,0-1,.6.2-1.4-1.3-2.6-2.3-3.5-1.2-1-2.5-2-4.1-2.4v-1.1s2.4.5,2.4.5c-2.5-2.2.8-1.1,1-1.2,0,0,0-1,.3-1.2.2-.1.7,0,1-.1.3-.1,1.2-.3,1.4-.7h-3.6Z"/>
</svg>